<?xml version="1.0" encoding="utf-8"?>
<!-- Generator: Adobe Illustrator 15.1.0, SVG Export Plug-In . SVG Version: 6.00 Build 0)  -->
<!DOCTYPE svg PUBLIC "-//W3C//DTD SVG 1.1//EN" "http://www.w3.org/Graphics/SVG/1.1/DTD/svg11.dtd">
<svg version="1.1" id="Layer_1" xmlns="http://www.w3.org/2000/svg" xmlns:xlink="http://www.w3.org/1999/xlink" x="0px" y="0px"
	 width="200px" height="53.965px" viewBox="0 0 200 53.965" enable-background="new 0 0 200 53.965" xml:space="preserve">
<path fill="#FFFFFF" d="M34.034,14.7l-3.976,3.211c2.388,0.412,4.377,0.961,5.522,1.531l0.509,0.254l-0.509,0.257
	c-2.299,1.146-7.958,2.302-15.413,2.302S7.051,21.099,4.754,19.953l-0.512-0.257l0.512-0.254c1.143-0.57,3.134-1.12,5.519-1.528
	L6.298,14.7C2.12,15.843,0,17.524,0,19.697v27.735c0,6.352,18.104,6.533,20.167,6.533c2.062,0,20.168-0.183,20.168-6.533V19.697
	C40.335,17.524,38.214,15.843,34.034,14.7z M36.36,47.188l-0.104,0.082c-1.36,1.129-7.251,2.721-16.088,2.721
	c-8.838,0-14.728-1.592-16.088-2.721l-0.102-0.082v-4.621l0.386,0.146c5.396,2.062,14.11,2.165,15.805,2.165
	c1.693,0,10.408-0.104,15.804-2.165l0.389-0.146v4.621H36.36z M36.36,38.096l-0.104,0.086c-1.365,1.129-7.256,2.717-16.088,2.717
	c-8.833,0-14.726-1.588-16.088-2.717l-0.102-0.086V33.01l0.386,0.146c5.396,2.061,14.11,2.164,15.805,2.164
	c1.693,0,10.408-0.104,15.804-2.164l0.389-0.146v5.086H36.36z M36.36,28.54l-0.104,0.084c-1.36,1.132-7.251,2.72-16.088,2.72
	c-8.838,0-14.728-1.588-16.088-2.72L3.977,28.54v-4.621l0.386,0.151c5.251,2.002,13.425,2.161,15.805,2.161
	c2.378,0,10.553-0.158,15.804-2.161l0.389-0.151L36.36,28.54L36.36,28.54z M36.404,6.208h-6.298V0h-19.88v6.208H3.928l16.24,13.126
	L36.404,6.208z M56.906,8.719h-1.215v14.209h1.215V8.719z M62.721,10.655l8.946,12.272h1.194V8.719h-1.214V20.82L62.743,8.719
	h-1.235v14.209h1.214L62.721,10.655L62.721,10.655z M77.462,22.928h1.215v-6.732h7.646V15.09h-7.646V9.825h7.796V8.719h-9.012
	L77.462,22.928L77.462,22.928z M96.446,8.485c-4.176,0-6.902,3.195-6.902,7.348s2.726,7.349,6.902,7.349
	c4.154,0,6.902-3.195,6.902-7.349S100.6,8.485,96.446,8.485z M96.446,22.075c-3.452,0-5.624-2.661-5.624-6.242
	c0-3.62,2.172-6.242,5.624-6.242c3.408,0,5.623,2.622,5.623,6.242C102.068,19.414,99.854,22.075,96.446,22.075z M108.631,17.048
	h3.13l3.983,5.879h1.469l-4.109-5.965c2.108-0.086,3.94-1.512,3.94-4.091c0-2.599-1.875-4.153-4.323-4.153h-5.305v14.209h1.215
	V17.048z M108.631,9.825h3.982c1.873,0,3.152,1.258,3.152,3.047s-1.279,3.066-3.152,3.066h-3.982V9.825z M133.191,22.928h1.235
	V8.719h-1.831l-4.812,11.778l-4.838-11.778h-1.811v14.209h1.217V10.316l5.194,12.612h0.47l5.176-12.612V22.928z M140.373,19.433
	h7.561l1.43,3.495h1.365L144.91,8.719h-1.514l-5.813,14.209h1.364L140.373,19.433z M144.143,9.911l3.409,8.416h-6.795L144.143,9.911
	z M156.031,22.928h1.234V9.825h4.646V8.719h-10.522v1.106h4.644L156.031,22.928L156.031,22.928z M165.488,22.928h1.217V8.719h-1.217
	V22.928z M177.675,8.485c-4.175,0-6.899,3.195-6.899,7.348s2.726,7.349,6.899,7.349c4.155,0,6.902-3.195,6.902-7.349
	S181.83,8.485,177.675,8.485z M177.675,22.075c-3.452,0-5.622-2.661-5.622-6.242c0-3.62,2.17-6.242,5.622-6.242
	c3.407,0,5.624,2.622,5.624,6.242C183.299,19.414,181.082,22.075,177.675,22.075z M198.784,8.719V20.82l-8.902-12.101h-1.235v14.209
	h1.215V10.655l8.945,12.272H200V8.719H198.784z M61.219,32.688c1.678,0,3.042,0.976,3.678,2.203l2.765-1.359
	c-1.067-1.885-2.994-3.699-6.443-3.699c-4.422,0-7.936,3.176-7.936,7.826s3.514,7.822,7.936,7.822c3.449,0,5.353-1.834,6.443-3.719
	l-2.765-1.338c-0.636,1.245-2,2.2-3.678,2.2c-2.628,0-4.627-2.106-4.627-4.967C56.592,34.799,58.591,32.688,61.219,32.688z
	 M77.894,29.831c-4.562,0-7.894,3.265-7.894,7.826c0,4.559,3.332,7.823,7.894,7.823c4.582,0,7.913-3.266,7.913-7.823
	C85.807,33.096,82.476,29.831,77.894,29.831z M77.894,42.624c-2.795,0-4.585-2.153-4.585-4.967c0-2.837,1.79-4.97,4.585-4.97
	c2.788,0,4.604,2.133,4.604,4.97C82.499,40.471,80.682,42.624,77.894,42.624z M92.433,30.082h-3.22V45.21h9.618v-2.836h-6.398
	V30.082L92.433,30.082z M105.434,30.082h-3.222V45.21h9.616v-2.836h-6.396V30.082H105.434z M115.209,45.21h10.706v-2.793h-7.483
	v-3.511h7.325v-2.771h-7.325v-3.287h7.483v-2.767h-10.706V45.21z M136.781,32.688c1.679,0,3.037,0.976,3.673,2.203l2.769-1.359
	c-1.064-1.885-2.994-3.699-6.44-3.699c-4.425,0-7.939,3.176-7.939,7.826s3.517,7.822,7.939,7.822c3.446,0,5.351-1.834,6.44-3.719
	l-2.769-1.338c-0.636,1.245-1.994,2.2-3.673,2.2c-2.633,0-4.627-2.106-4.627-4.967C132.154,34.799,134.148,32.688,136.781,32.688z
	 M145.354,32.914h4.422V45.21h3.246V32.914h4.4v-2.832h-12.068V32.914z M160.621,45.21h3.225V30.082h-3.225V45.21z M175.143,29.831
	c-4.561,0-7.894,3.265-7.894,7.826c0,4.559,3.333,7.823,7.894,7.823c4.582,0,7.914-3.266,7.914-7.823
	C183.057,33.096,179.725,29.831,175.143,29.831z M175.143,42.624c-2.793,0-4.584-2.153-4.584-4.967c0-2.837,1.791-4.97,4.584-4.97
	c2.789,0,4.604,2.133,4.604,4.97C179.747,40.471,177.932,42.624,175.143,42.624z M196.777,39.881l-7.008-9.799h-3.312V45.21h3.224
	V35.049l7.213,10.161H200V30.082h-3.223V39.881z"/>
</svg>
