<?xml version="1.0" encoding="utf-8"?>
<!-- Generator: Adobe Illustrator 15.1.0, SVG Export Plug-In . SVG Version: 6.00 Build 0)  -->
<!DOCTYPE svg PUBLIC "-//W3C//DTD SVG 1.1//EN" "http://www.w3.org/Graphics/SVG/1.1/DTD/svg11.dtd">
<svg version="1.1" id="Layer_1" xmlns="http://www.w3.org/2000/svg" xmlns:xlink="http://www.w3.org/1999/xlink" x="0px" y="0px"
	 width="22px" height="22px" viewBox="0 0 22 22" enable-background="new 0 0 22 22" xml:space="preserve">
<g>
	<polygon fill="#F26649" points="17.619,2.531 15.052,2.531 15.052,0 6.947,0 6.947,2.531 4.379,2.531 11,7.882 	"/>
	<path fill="#F89E59" d="M16.653,5.993l-1.621,1.309c0.973,0.168,1.784,0.392,2.251,0.624l0.207,0.104l-0.207,0.105
		C16.347,8.602,14.039,9.073,11,9.073c-3.04,0-5.347-0.471-6.284-0.938L4.508,8.029l0.208-0.104c0.466-0.232,1.278-0.456,2.25-0.623
		L5.346,5.993C3.643,6.458,2.778,7.144,2.778,8.03v11.307C2.778,21.926,10.158,22,11,22c0.84,0,8.222-0.074,8.222-2.663V8.03
		C19.222,7.144,18.357,6.458,16.653,5.993z M4.399,9.751l0.158,0.062c2.141,0.816,5.473,0.88,6.443,0.88s4.303-0.064,6.443-0.88
		l0.158-0.062v1.884l0,0l-0.043,0.034c-0.554,0.462-2.956,1.109-6.559,1.109s-6.004-0.647-6.558-1.109l-0.042-0.034V9.751z
		 M17.602,19.237L17.602,19.237l-0.043,0.033C17.005,19.73,14.603,20.38,11,20.38s-6.004-0.649-6.558-1.109L4.4,19.237v-1.884
		l0.157,0.059c2.199,0.841,5.752,0.883,6.443,0.883c0.689,0,4.243-0.042,6.442-0.883l0.158-0.059V19.237z M17.602,15.53
		L17.602,15.53l-0.043,0.035c-0.557,0.46-2.958,1.107-6.559,1.107s-6.003-0.647-6.558-1.107L4.4,15.53v-2.073l0.157,0.06
		c2.199,0.841,5.752,0.883,6.443,0.883c0.689,0,4.243-0.043,6.442-0.883l0.158-0.06V15.53z"/>
</g>
</svg>
