<?xml version="1.0" encoding="utf-8"?>
<!-- Generator: Adobe Illustrator 15.1.0, SVG Export Plug-In . SVG Version: 6.00 Build 0)  -->
<!DOCTYPE svg PUBLIC "-//W3C//DTD SVG 1.1//EN" "http://www.w3.org/Graphics/SVG/1.1/DTD/svg11.dtd">
<svg version="1.1" id="Layer_1" xmlns="http://www.w3.org/2000/svg" xmlns:xlink="http://www.w3.org/1999/xlink" x="0px" y="0px"
	 width="22px" height="22px" viewBox="0 0 22 22" enable-background="new 0 0 22 22" xml:space="preserve">
<path fill="#FFFFFF" d="M19.207,11.829c0.006-0.034,0.016-0.064,0.016-0.092V8.031c0-0.887-0.866-1.573-2.569-2.038l-1.62,1.309
	c0.973,0.167,1.784,0.392,2.249,0.625l0.209,0.104l-0.209,0.103C16.347,8.602,14.038,9.073,11,9.073S5.653,8.602,4.718,8.134
	L4.509,8.031l0.209-0.104C5.182,7.694,5.994,7.47,6.966,7.303l-1.62-1.31C3.644,6.459,2.777,7.145,2.777,8.031v3.706
	c0,0.028,0.009,0.058,0.016,0.092c0.006,0.027,0.013,0.053,0.017,0.08l0.019,0.131H2.777v7.297C2.777,21.926,10.159,22,11,22
	s8.223-0.074,8.223-2.663V12.04h-0.052l0.02-0.131C19.194,11.881,19.201,11.855,19.207,11.829z M17.601,19.235l-0.042,0.035
	c-0.556,0.461-2.955,1.108-6.559,1.108s-6.003-0.647-6.559-1.108l-0.042-0.035v-1.883l0.158,0.061
	c2.198,0.84,5.752,0.882,6.442,0.882s4.244-0.042,6.442-0.882l0.158-0.061V19.235z M17.601,15.53l-0.042,0.035
	c-0.557,0.46-2.957,1.108-6.559,1.108s-6.003-0.648-6.559-1.108L4.399,15.53v-2.073l0.158,0.061c2.198,0.84,5.752,0.882,6.442,0.882
	s4.244-0.042,6.442-0.882l0.158-0.061V15.53z M17.601,11.635l-0.042,0.034c-0.556,0.46-2.955,1.109-6.559,1.109
	s-6.003-0.648-6.559-1.109l-0.042-0.034V9.752l0.158,0.06C6.698,10.63,10.03,10.694,11,10.694s4.302-0.064,6.442-0.882l0.158-0.06
	V11.635z M17.62,2.532h-2.566V0H6.946v2.532H4.38L11,7.882L17.62,2.532z"/>
</svg>
